<?xml version="1.0" standalone="no"?>
<!DOCTYPE svg PUBLIC "-//W3C//DTD SVG 20010904//EN"
 "http://www.w3.org/TR/2001/REC-SVG-20010904/DTD/svg10.dtd">
<svg version="1.0" xmlns="http://www.w3.org/2000/svg"
 width="512.000000pt" height="512.000000pt" viewBox="0 0 512.000000 512.000000"
 preserveAspectRatio="xMidYMid meet">

<g transform="translate(0.000000,512.000000) scale(0.100000,-0.100000)"
fill="#000000" stroke="none">
<path d="M2103 4857 l-103 -103 0 -148 c0 -83 5 -156 10 -167 6 -10 42 -35 80
-54 l70 -35 0 -146 c0 -81 5 -154 10 -165 6 -10 42 -35 80 -54 l70 -35 0 -558
0 -557 -80 -80 -80 -80 0 285 c0 325 -8 379 -67 493 -142 274 -488 385 -766
246 -167 -84 -484 -516 -710 -969 -265 -529 -406 -1048 -448 -1644 -17 -242
-9 -401 24 -494 35 -100 80 -172 153 -246 73 -72 145 -117 246 -154 l73 -27
575 0 575 0 80 27 c116 40 199 92 290 183 91 91 143 174 183 290 l27 80 3 575
c3 594 -1 690 -37 830 l-19 75 86 88 c84 84 88 87 132 87 44 0 48 -3 132 -87
l86 -88 -19 -75 c-36 -140 -40 -236 -37 -830 l3 -575 27 -80 c40 -116 92 -199
183 -290 91 -91 174 -143 290 -183 l80 -27 575 0 575 0 73 27 c101 37 173 82
246 154 73 74 118 146 153 246 33 93 41 252 24 494 -61 867 -361 1663 -885
2343 -44 58 -106 133 -138 167 -253 270 -732 193 -903 -145 -58 -116 -65 -167
-65 -491 l0 -285 -80 80 -80 80 0 557 0 558 70 35 c38 19 74 44 80 54 5 11 10
84 10 165 l0 146 70 35 c38 19 74 44 80 54 5 11 10 84 10 167 l0 148 -103 103
-103 103 -107 0 c-103 0 -110 -1 -177 -35 l-70 -35 -70 35 c-67 34 -74 35
-177 35 l-107 0 -103 -103z m357 -97 c44 -22 89 -40 100 -40 11 0 56 18 100
40 63 32 91 40 133 40 51 0 54 -2 110 -58 l57 -58 0 -77 0 -77 -200 -100 -200
-100 -200 100 -200 100 0 77 0 77 57 58 c56 56 59 58 110 58 42 0 70 -8 133
-40z m100 -600 c11 0 70 25 130 55 l110 55 0 -70 0 -70 -120 -60 -120 -60
-120 60 -120 60 0 70 0 70 110 -55 c60 -30 119 -55 130 -55z m0 -320 c12 0 34
7 50 15 l30 16 0 -56 0 -55 -80 0 -80 0 0 55 0 56 30 -16 c16 -8 38 -15 50
-15z m80 -320 l0 -80 -80 0 -80 0 0 80 0 80 80 0 80 0 0 -80z m0 -320 l0 -80
-80 0 -80 0 0 80 0 80 80 0 80 0 0 -80z m-1120 -257 l0 -177 143 -143 143
-143 194 0 194 0 143 143 143 143 0 97 0 97 80 0 80 0 0 -97 0 -97 143 -143
143 -143 194 0 194 0 143 143 143 143 0 177 0 177 80 0 80 0 0 -222 0 -222
-160 -161 c-203 -204 -200 -188 -58 -332 l102 -104 -62 -62 -62 -62 -183 183
-183 182 -119 0 -119 0 -121 120 -122 120 -113 0 -113 0 -122 -120 -121 -120
-119 0 -119 0 -183 -182 -183 -183 -62 62 -62 62 102 104 c142 144 145 128
-58 332 l-160 161 0 222 0 222 80 0 80 0 0 -177z"/>
</g>
</svg>
